<?xml version="1.0" encoding="iso-8859-1"?>
<!-- Generator: Adobe Illustrator 19.0.0, SVG Export Plug-In . SVG Version: 6.00 Build 0)  -->
<svg version="1.1" id="Layer_1" xmlns="http://www.w3.org/2000/svg" xmlns:xlink="http://www.w3.org/1999/xlink" x="0px" y="0px"
	 viewBox="0 0 512 512" style="enable-background:new 0 0 512 512;" xml:space="preserve">
<g>
	<g>
		<path d="M454.334,213.952c-3.18-24.933-13.047-47.802-27.728-66.763l40.829-40.829l-24.831-24.831l-40.829,40.829
			c-18.962-14.682-41.832-24.548-66.763-27.728V36.964h-35.116v57.667c-24.931,3.18-47.802,13.046-66.763,27.728l-40.828-40.828
			l-24.831,24.831l40.828,40.828c-13.135,16.964-22.408,37.056-26.494,58.953c-6.244-1.22-12.676-1.868-19.237-1.868
			c-54.659,0-99.129,44.469-99.129,99.128c0,1.148,0.02,2.297,0.06,3.444C48.6,310.796,34.99,318.74,24.031,330.07
			C8.534,346.096,0,367.203,0,389.503c0,47.164,38.369,85.533,85.532,85.533h222.051c39.668,0,71.938-32.271,71.938-71.938
			c0-15.66-5.129-30.33-13.866-42.288c13.095-4.898,25.249-11.729,36.12-20.145l40.829,40.828l24.831-24.831l-40.829-40.828
			c14.682-18.962,24.549-41.831,27.728-66.763H512v-0.001v-35.116H454.334z M307.584,439.919H85.532
			c-27.799,0-50.415-22.616-50.415-50.417c0-27.259,21.329-49.382,48.557-50.365l21.193-0.766l-4.707-20.679
			c-1.062-4.663-1.6-9.471-1.6-14.291c0-35.296,28.716-64.011,64.013-64.011c28.073,0,52.608,17.969,61.052,44.714l5.249,16.629
			l16.664-5.135c3.934-1.213,8.038-1.827,12.198-1.827c22.802,0,41.353,18.551,41.353,41.353c0,3.328-0.406,6.664-1.205,9.915
			l-4.661,18.948l19.333,2.643c18.158,2.482,31.851,18.16,31.851,36.468C344.406,423.402,327.888,439.919,307.584,439.919z
			 M334.153,333.024c-0.418-15.355-5.373-29.589-13.584-41.412c22.59-1.502,40.751-19.186,42.975-41.573h-92.178
			c0.354,3.561,1.116,7.001,2.229,10.279c-5.119-1.084-10.421-1.665-15.859-1.665c-2.183,0-4.36,0.092-6.525,0.276
			c-8.23-16.498-20.737-30.08-35.91-39.58c6.035-51.015,49.542-90.714,102.154-90.714c56.726,0,102.876,46.15,102.876,102.876
			C420.33,282.551,382.963,325.022,334.153,333.024z"/>
	</g>
</g>
<g>
	<g>
		<circle cx="273.323" cy="208.345" r="17.558"/>
	</g>
</g>
<g>
	<g>
		<circle cx="361.582" cy="208.345" r="17.558"/>
	</g>
</g>
<g>
</g>
<g>
</g>
<g>
</g>
<g>
</g>
<g>
</g>
<g>
</g>
<g>
</g>
<g>
</g>
<g>
</g>
<g>
</g>
<g>
</g>
<g>
</g>
<g>
</g>
<g>
</g>
<g>
</g>
</svg>
