<?xml version="1.0" encoding="UTF-8"?>
<svg xmlns="http://www.w3.org/2000/svg" xmlns:xlink="http://www.w3.org/1999/xlink" viewBox="0 0 30 30" width="30px" height="30px">
<g id="surface22408659">
<path style="fill-rule:nonzero;fill:rgb(36.862746%,91.764706%,83.137256%);fill-opacity:1;stroke-width:15;stroke-linecap:butt;stroke-linejoin:round;stroke:rgb(0%,0%,0%);stroke-opacity:1;stroke-miterlimit:10;" d="M 44.181446 24.612508 L 85.999997 66.43106 L 127.818549 24.612508 C 130.060569 22.370488 133.667297 22.370488 135.909317 24.612508 L 147.387486 36.090677 C 149.629506 38.308327 149.629506 41.939425 147.387486 44.181446 L 105.568935 85.999997 L 147.387486 127.818549 C 149.629506 130.060569 149.629506 133.667297 147.387486 135.909317 L 135.909317 147.387486 C 133.691667 149.629506 130.060569 149.629506 127.818549 147.387486 L 85.999997 105.568935 L 44.181446 147.387486 C 41.939425 149.629506 38.332697 149.629506 36.090677 147.387486 L 24.612508 135.909317 C 22.370488 133.691667 22.370488 130.060569 24.612508 127.818549 L 66.43106 85.999997 L 24.612508 44.181446 C 22.370488 41.939425 22.370488 38.332697 24.612508 36.090677 L 36.090677 24.612508 C 37.187317 23.491498 38.673874 22.930993 40.136061 22.930993 C 41.598248 22.930993 43.060436 23.491498 44.181446 24.612508 Z M 44.181446 24.612508 " transform="matrix(0.160291,0,0,0.160291,1.215,1.215)"/>
<path style=" stroke:none;fill-rule:nonzero;fill:rgb(36.862746%,91.764706%,83.137256%);fill-opacity:1;" d="M 7.648438 4.890625 C 7.414062 4.890625 7.175781 4.980469 7 5.160156 L 5.160156 7 C 4.800781 7.359375 4.800781 7.9375 5.160156 8.296875 L 11.863281 15 L 5.160156 21.703125 C 4.800781 22.0625 4.800781 22.644531 5.160156 23 L 7 24.839844 C 7.359375 25.199219 7.9375 25.199219 8.296875 24.839844 L 15 18.136719 L 21.703125 24.839844 C 22.0625 25.199219 22.644531 25.199219 23 24.839844 L 24.839844 23 C 25.199219 22.640625 25.199219 22.0625 24.839844 21.703125 L 18.136719 15 L 24.839844 8.296875 C 25.199219 7.9375 25.199219 7.355469 24.839844 7 L 23 5.160156 C 22.640625 4.800781 22.0625 4.800781 21.703125 5.160156 L 15 11.863281 L 8.296875 5.160156 C 8.117188 4.980469 7.882812 4.890625 7.648438 4.890625 Z M 7.648438 4.890625 "/>
</g>
</svg>
