<?xml version="1.0" encoding="iso-8859-1"?>
<!-- Generator: Adobe Illustrator 19.0.0, SVG Export Plug-In . SVG Version: 6.00 Build 0)  -->
<svg version="1.1" id="Layer_1" xmlns="http://www.w3.org/2000/svg" xmlns:xlink="http://www.w3.org/1999/xlink" x="0px" y="0px"
	 viewBox="0 0 512 512" style="enable-background:new 0 0 512 512;" xml:space="preserve">
<g transform="translate(0 1)">
	<g>
		<g>
			<path d="M315.733,313.027V67.267C315.733,29.72,285.013-1,247.467-1C209.92-1,179.2,29.72,179.2,67.267v245.76
				c-26.453,20.48-42.667,52.907-42.667,86.187C135.68,458.947,183.467,508.44,243.2,511c1.707,0,2.56,0,4.267,0
				c29.013,0,56.32-11.093,76.8-30.72c22.187-21.333,34.133-49.493,34.133-80.213C358.4,365.933,342.187,334.36,315.733,313.027z
				 M313.173,467.48c-18.773,17.92-43.52,27.307-69.12,26.453c-50.347-1.707-91.307-44.373-90.453-94.72
				c0-29.867,15.36-58.027,39.253-75.093c1.707-1.707,3.413-4.267,3.413-6.827V229.4h51.2c5.12,0,8.533-3.413,8.533-8.533
				s-3.413-8.533-8.533-8.533h-51.2v-17.067h25.6c5.12,0,8.533-3.413,8.533-8.533s-3.413-8.533-8.533-8.533h-25.6v-17.067h51.2
				c5.12,0,8.533-3.413,8.533-8.533c0-5.12-3.413-8.533-8.533-8.533h-51.2V127h25.6c5.12,0,8.533-3.413,8.533-8.533
				s-3.413-8.533-8.533-8.533h-25.6V92.867h51.2c5.12,0,8.533-3.413,8.533-8.533c0-5.12-3.413-8.533-8.533-8.533h-51.2v-8.533
				c0-28.16,23.04-51.2,51.2-51.2c28.16,0,51.2,23.04,51.2,51.2v250.027c0,2.56,0.853,5.12,3.413,6.827
				c24.747,17.067,39.253,46.08,39.253,75.947C341.333,425.667,331.093,449.56,313.173,467.48z"/>
			<path d="M291.84,337.773l-10.24-7.68V280.6c0-18.773-15.36-34.133-34.133-34.133c-18.773,0-34.133,15.36-34.133,34.133v49.493
				l-10.24,7.68c-20.48,14.507-32.427,36.693-32.427,61.44c-0.853,40.96,33.28,75.947,73.387,77.653c1.707,0,3.413,0,3.413,0
				c20.48,0,40.107-7.68,54.613-22.187c14.507-14.507,22.187-34.133,22.187-54.613C324.267,375.32,312.32,352.28,291.84,337.773z
				 M289.28,442.733c-11.093,11.093-25.6,17.067-41.813,17.067h-2.56c-31.573-1.707-57.173-29.013-58.027-60.587
				c0-18.773,9.387-36.693,24.747-47.787l14.507-10.24c1.707-1.707,3.413-4.267,3.413-6.827V280.6
				c0-9.387,7.68-17.067,17.067-17.067c9.387,0,17.067,7.68,17.067,17.067v53.76c0,2.56,0.853,5.12,3.413,6.827l14.507,10.24
				c15.36,11.093,24.747,29.867,24.747,48.64C306.347,416.28,300.373,431.64,289.28,442.733z"/>
			<path d="M452.267,301.933c-14.507,0-25.6-11.093-25.6-25.6c0-5.12-3.413-8.533-8.533-8.533c-5.12,0-8.533,3.413-8.533,8.533
				c0,14.507-11.093,25.6-25.6,25.6c-5.12,0-8.533,3.413-8.533,8.533S378.88,319,384,319c14.507,0,25.6,11.093,25.6,25.6
				c0,5.12,3.413,8.533,8.533,8.533c5.12,0,8.533-3.413,8.533-8.533c0-14.507,11.093-25.6,25.6-25.6c5.12,0,8.533-3.413,8.533-8.533
				S457.387,301.933,452.267,301.933z M418.133,319c-2.56-3.413-5.12-5.973-8.533-8.533c3.413-2.56,5.973-5.12,8.533-8.533
				c2.56,3.413,5.12,5.973,8.533,8.533C423.253,313.027,420.693,315.587,418.133,319z"/>
			<path d="M375.467,50.2c5.12,0,8.533-3.413,8.533-8.533s-3.413-8.533-8.533-8.533h-8.533V24.6c0-5.12-3.413-8.533-8.533-8.533
				c-5.12,0-8.533,3.413-8.533,8.533v8.533h-8.533c-5.12,0-8.533,3.413-8.533,8.533s3.413,8.533,8.533,8.533h8.533v8.533
				c0,5.12,3.413,8.533,8.533,8.533c5.12,0,8.533-3.413,8.533-8.533V50.2H375.467z"/>
			<path d="M142.507,69.827l-25.6-25.6H104.96l-25.6,25.6v11.947l25.6,25.6h11.947l25.6-25.6V69.827z M110.933,89.453L97.28,75.8
				l13.653-13.653L124.587,75.8L110.933,89.453z"/>
			<path d="M59.733,314.733c-5.12,0-8.533,3.413-8.533,8.533s3.413,8.533,8.533,8.533s8.533-3.413,8.533-8.533
				S64.853,314.733,59.733,314.733z"/>
		</g>
	</g>
</g>
<g>
</g>
<g>
</g>
<g>
</g>
<g>
</g>
<g>
</g>
<g>
</g>
<g>
</g>
<g>
</g>
<g>
</g>
<g>
</g>
<g>
</g>
<g>
</g>
<g>
</g>
<g>
</g>
<g>
</g>
</svg>
